<svg width="26" height="26" viewBox="0 0 26 26" fill="none" xmlns="http://www.w3.org/2000/svg">

<path d="M25.9146 19.4403L25.9123 23.3492C25.9136 23.7121 25.8391 24.0713 25.6935 24.4038C25.5479 24.7363 25.3346 25.0347 25.0671 25.28C24.7996 25.5253 24.4838 25.7121 24.14 25.8284C23.7962 25.9446 23.432 25.9878 23.0706 25.9551C19.0619 25.5195 15.2117 24.1494 11.8296 21.955C8.68289 19.9546 6.01562 17.2855 4.01719 14.1373C1.81737 10.7381 0.449407 6.86803 0.0241232 2.84058C-0.00822269 2.48027 0.0348068 2.11713 0.150471 1.77427C0.266136 1.43142 0.451902 1.11636 0.695942 0.849164C0.939981 0.581968 1.23695 0.368486 1.56793 0.22231C1.89892 0.0761341 2.25667 0.000467023 2.61842 0.000126325H6.5269C7.15918 -0.0060972 7.77201 0.217823 8.25117 0.630151C8.73033 1.04248 9.04312 1.61508 9.13124 2.24122C9.29548 3.49215 9.6007 4.7204 10.0411 5.90255C10.2161 6.36891 10.2537 6.87575 10.1495 7.36301C10.0453 7.85027 9.80368 8.29754 9.45319 8.6518L7.79763 10.3066C9.65037 13.5686 12.3494 16.2695 15.61 18.1243L17.2656 16.4696C17.62 16.1193 18.0674 15.8778 18.5546 15.7739C19.0419 15.67 19.5487 15.7079 20.0149 15.8832C21.1967 16.3244 22.4246 16.6303 23.6753 16.7953C24.3081 16.8846 24.8859 17.2034 25.2988 17.6911C25.7117 18.1788 25.9308 18.8013 25.9146 19.4403Z" fill="url(#paint0_linear)"/>
<defs>

<linearGradient id="paint0_linear" x1="0.00760551" y1="12.9829" x2="25.9192" y2="12.998" gradientUnits="userSpaceOnUse">
<stop stop-color="#51B37B"/>
<stop offset="1" stop-color="#083674"/>
</linearGradient>
</defs>
</svg>
