<svg width="69" height="65" viewBox="0 0 69 65" fill="none" xmlns="http://www.w3.org/2000/svg">
<path opacity="0.5" fill-rule="evenodd" clip-rule="evenodd" d="M56.5212 2.54521C55.6958 2.20063 54.7202 2.33176 52.7 3.08516C51.6007 3.49513 50.8491 4.18649 50.3677 4.78431C50.1273 5.08289 49.9587 5.35308 49.8528 5.54251C49.8381 5.56876 49.8247 5.59337 49.8126 5.61619C49.8011 5.66884 49.7855 5.72375 49.7645 5.78021C49.6314 6.13816 49.3519 6.3794 49.0483 6.48224C48.8009 6.56609 48.5928 6.5415 48.5064 6.52753C48.4048 6.51111 48.3268 6.48411 48.2848 6.4682C48.2007 6.43628 48.1389 6.40115 48.1153 6.38751C48.0615 6.35635 48.0211 6.32705 48.0082 6.31765C47.9896 6.30409 47.9744 6.29226 47.965 6.28491C47.955 6.27699 47.9466 6.27016 47.9408 6.26538L47.9328 6.25883L47.9298 6.25627L47.9278 6.25466C47.9277 6.25454 47.9273 6.25418 48.6589 5.34002C47.9682 5.04237 47.7263 4.93792 47.6417 4.90114C47.6359 4.89863 47.6308 4.89643 47.6264 4.89451C47.6263 4.89467 47.6265 4.89434 47.6264 4.89451L48.6589 5.34002L47.9273 6.25418L47.2628 5.69477L47.2979 5.60901C47.2476 5.55945 47.1928 5.5057 47.1333 5.44741C46.2051 4.53877 44.7742 4.53423 43.5316 5.52546C43.3578 5.66407 43.1826 5.9361 43.0636 6.42404C42.9462 6.90544 42.9115 7.4872 42.9316 8.08578C42.9357 8.20737 42.942 8.32758 42.95 8.44547C43.0379 8.65116 43.1175 8.86296 43.1883 9.08056C43.3739 9.65177 43.4896 10.0756 43.5395 10.3823C43.5609 10.5142 43.5922 10.7449 43.5523 10.9904C43.5322 11.1139 43.4758 11.363 43.283 11.6002C43.0498 11.8873 42.7117 12.04 42.3676 12.04C42.084 12.0399 41.8738 11.9373 41.7776 11.8834C41.6686 11.8225 41.5864 11.7556 41.5361 11.7113C41.4352 11.6227 41.3565 11.5302 41.3109 11.4741C41.26 11.4114 41.2175 11.353 41.1893 11.3129C41.1747 11.2921 41.1624 11.2743 41.1533 11.2607L41.1418 11.2434L41.1377 11.2372L41.1361 11.2347L41.1354 11.2336C41.1352 11.2334 41.1348 11.2327 42.0943 10.5767C41.6901 10.6782 41.4318 10.743 41.2667 10.7844C41.2667 10.7844 41.2667 10.7844 41.2667 10.7844L42.0943 10.5767L41.1348 11.2327L41.0224 11.0598L40.9742 10.8579L41.2667 10.7844C41.2667 10.7844 41.2667 10.7844 41.2667 10.7844C40.9742 10.8577 40.9742 10.8581 40.9742 10.8579L40.9735 10.855L40.9724 10.8505L40.9691 10.8364C40.9665 10.8248 40.9629 10.809 40.9584 10.7891C40.9496 10.7493 40.9374 10.6932 40.9229 10.6228C40.894 10.482 40.8556 10.2828 40.816 10.0405C40.7719 9.77038 40.7254 9.44206 40.6887 9.0779C40.0626 7.85698 38.9984 7.02214 37.8424 6.70563C36.4899 6.33532 34.9928 6.66423 33.8386 7.99601C32.6457 9.37235 32.3063 11.1844 32.3063 12.7742C32.3063 13.4974 32.377 14.1425 32.4532 14.6264L35.4105 14.6131C37.7583 14.6025 40.9039 14.5884 44.0951 14.5744C50.4748 14.5462 57.0438 14.518 57.7765 14.518C57.8575 14.518 58.0862 14.4718 58.4458 14.2606C58.7847 14.0616 59.1568 13.7641 59.5022 13.3993C60.2354 12.6251 60.6351 11.7853 60.6351 11.2122C60.6351 10.6784 60.6504 10.2184 60.664 9.81018C60.7099 8.43406 60.7361 7.6477 60.0888 6.61506C58.4343 3.97543 57.4201 2.9205 56.5212 2.54521ZM31.5178 15.8133C30.4091 16.1382 30.4089 16.1378 30.4088 16.1374L30.4086 16.1365L30.4079 16.1342L30.4063 16.1282L30.4015 16.1104C30.3977 16.096 30.3926 16.0766 30.3864 16.0525C30.3741 16.0041 30.3575 15.9365 30.3381 15.8514C30.2992 15.6813 30.2489 15.4404 30.199 15.143C30.0996 14.5504 30 13.7218 30 12.7742C30 10.9041 30.39 8.41461 32.1148 6.42451C33.8782 4.38986 36.2869 3.83151 38.4372 4.42025C39.3137 4.66021 40.1438 5.08899 40.871 5.67787C41.0707 4.9575 41.4374 4.1994 42.1157 3.65832C43.9288 2.21197 46.5054 1.85443 48.4365 3.47407C48.4851 3.40978 48.5361 3.34439 48.5894 3.27815C49.2623 2.44239 50.3342 1.45056 51.9119 0.862156C53.9035 0.1194 55.6631 -0.366868 57.3907 0.354351C59.0447 1.04486 60.401 2.73893 62.0288 5.33594C63.1013 7.04696 63.0323 8.7025 62.9697 10.2069C62.9554 10.5502 62.9414 10.8857 62.9414 11.2122C62.9414 12.6841 62.0646 14.0886 61.1566 15.0474C60.6815 15.5491 60.1418 15.9904 59.5918 16.3134C59.0623 16.6243 58.4249 16.8835 57.7765 16.8835C57.0503 16.8835 50.49 16.9116 44.1051 16.9397C40.9139 16.9538 37.7684 16.9679 35.4207 16.9784L31.5232 16.996C31.523 16.996 31.5229 16.996 31.5178 15.8133ZM31.5178 15.8133L31.5232 16.996L30.6491 17L30.4091 16.1382L31.5178 15.8133ZM41.2683 10.8C41.2681 10.7997 41.2674 10.7949 41.2668 10.7859C41.2681 10.7957 41.2685 10.8002 41.2683 10.8Z" fill="#51B37B"/>
<path fill-rule="evenodd" clip-rule="evenodd" d="M24.3913 21C23.6229 21 23 21.6716 23 22.5C23 23.3284 23.6229 24 24.3913 24H37.6087C38.3771 24 39 23.3284 39 22.5C39 21.6716 38.3771 21 37.6087 21H24.3913Z" fill="#51B37B"/>
<path fill-rule="evenodd" clip-rule="evenodd" d="M8.47826 7C7.66184 7 7 7.67157 7 8.5C7 9.32843 7.66184 10 8.47826 10H22.5217C23.3382 10 24 9.32843 24 8.5C24 7.67157 23.3382 7 22.5217 7H8.47826Z" fill="#51B37B"/>
<path fill-rule="evenodd" clip-rule="evenodd" d="M22.6286 2.32381H9.37143L9.37143 58.6762H22.6286L22.6286 2.32381ZM9.37143 0C8.06172 0 7 1.0404 7 2.32381V58.6762C7 59.9596 8.06172 61 9.37143 61H22.6286C23.9383 61 25 59.9596 25 58.6762V2.32381C25 1.04041 23.9383 0 22.6286 0H9.37143Z" fill="#083674"/>
<path fill-rule="evenodd" clip-rule="evenodd" d="M36.8004 17.1738H25.1996V34.8262L36.8004 34.8262L36.8004 17.1738ZM25.1996 15C23.9848 15 23 15.9733 23 17.1738V34.8262C23 36.0268 23.9848 37 25.1996 37H36.8004C38.0152 37 39 36.0268 39 34.8262V17.1738C39 15.9733 38.0152 15 36.8004 15H25.1996Z" fill="#083674"/>
<path fill-rule="evenodd" clip-rule="evenodd" d="M55.3189 37.2836H25.315V58.7164L61.685 58.7164V43.5635C61.685 40.0952 58.8348 37.2836 55.3189 37.2836ZM25.315 35C24.0364 35 23 36.0224 23 37.2836V58.7164C23 59.9776 24.0364 61 25.315 61H61.685C62.9636 61 64 59.9776 64 58.7164V43.5635C64 38.834 60.1133 35 55.3189 35H25.315Z" fill="#083674"/>
<path fill-rule="evenodd" clip-rule="evenodd" d="M31.4706 46C30.6584 46 30 46.6716 30 47.5C30 48.3284 30.6584 49 31.4706 49H53.5294C54.3416 49 55 48.3284 55 47.5C55 46.6716 54.3416 46 53.5294 46H31.4706Z" fill="#083674"/>
<path fill-rule="evenodd" clip-rule="evenodd" d="M1.46809 58C0.657284 58 0 58.6716 0 59.5C0 60.3284 0.657284 61 1.46808 61H67.5319C68.3427 61 69 60.3284 69 59.5C69 58.6716 68.3427 58 67.5319 58H1.46809Z" fill="#51B37B"/>
</svg>
