<svg width="69" height="69" viewBox="0 0 69 69" fill="none" xmlns="http://www.w3.org/2000/svg">
<path d="M3.23438 33.4219H11.8594C12.1453 33.4219 12.4195 33.3083 12.6217 33.1061C12.8239 32.9039 12.9375 32.6297 12.9375 32.3437C12.934 27.9651 14.3347 23.7008 16.934 20.1771C19.5332 16.6534 23.1939 14.0561 27.3784 12.7667C31.5628 11.4773 36.0505 11.5638 40.1822 13.0135C44.3139 14.4631 47.8718 17.1995 50.3334 20.8207C50.4948 21.0568 50.7433 21.219 51.0244 21.2718C51.3054 21.3246 51.5959 21.2635 51.8319 21.1021C52.068 20.9407 52.2302 20.6922 52.283 20.4111C52.3358 20.1301 52.2747 19.8396 52.1133 19.6035C49.4437 15.6782 45.6069 12.6921 41.1462 11.0679C36.6856 9.44375 31.827 9.26384 27.2584 10.5537C22.6899 11.8435 18.6428 14.5377 15.6901 18.2548C12.7374 21.972 11.0288 26.5237 10.8061 31.2656H4.3373C4.57199 24.904 6.88675 18.795 10.9267 13.8752C14.9666 8.95542 20.5086 5.49649 26.703 4.02877C32.8975 2.56106 39.4023 3.16557 45.2202 5.74962C51.0381 8.33367 55.8479 12.7546 58.912 18.3346C59.0293 18.5469 59.2147 18.7134 59.4383 18.8073C59.6619 18.9012 59.9106 18.917 60.1443 18.8521L64.1021 17.7535L59.7982 30.6629L44.8015 20.6655C44.6837 20.5869 44.5516 20.5323 44.4127 20.5048C44.2738 20.4773 44.1308 20.4774 43.992 20.5051C43.8531 20.5328 43.7211 20.5877 43.6034 20.6664C43.4857 20.7452 43.3847 20.8463 43.3061 20.9641C43.2276 21.0819 43.173 21.214 43.1454 21.3529C43.1179 21.4918 43.118 21.6348 43.1458 21.7737C43.1735 21.9125 43.2283 22.0446 43.3071 22.1622C43.3858 22.2799 43.487 22.3809 43.6048 22.4595L59.7766 33.2407C59.9145 33.332 60.0715 33.3903 60.2355 33.4112C60.3995 33.432 60.566 33.4149 60.7224 33.3612C60.8787 33.3074 61.0205 33.2184 61.137 33.1011C61.2534 32.9837 61.3413 32.8412 61.3938 32.6844L66.7845 16.5126C66.8464 16.3269 66.8567 16.1279 66.8142 15.9369C66.7717 15.7459 66.678 15.57 66.5432 15.4282C66.4083 15.2864 66.2374 15.1839 66.0488 15.1319C65.8602 15.0798 65.6609 15.08 65.4724 15.1326L60.375 16.5503C56.9088 10.6249 51.5879 6.00591 45.2342 3.40684C38.8805 0.807774 31.8478 0.37332 25.2225 2.1706C18.5973 3.96789 12.7483 7.89688 8.57912 13.3505C4.40998 18.8042 2.15278 25.479 2.15625 32.3437C2.15625 32.6297 2.26984 32.9039 2.47203 33.1061C2.67422 33.3083 2.94844 33.4219 3.23438 33.4219Z" fill="#51B37B"/>
<path d="M66.0798 35.8989H57.4548C57.1689 35.8989 56.8947 36.0125 56.6925 36.2147C56.4903 36.4169 56.3767 36.6911 56.3767 36.9771C56.3802 41.3557 54.9795 45.62 52.3803 49.1437C49.781 52.6674 46.1203 55.2647 41.9358 56.5541C37.7514 57.8435 33.2637 57.757 29.132 56.3073C25.0003 54.8577 21.4424 52.1213 18.9809 48.5001C18.8195 48.264 18.5709 48.1018 18.2899 48.049C18.0088 47.9962 17.7183 48.0573 17.4823 48.2187C17.2462 48.3801 17.084 48.6287 17.0312 48.9097C16.9784 49.1907 17.0395 49.4812 17.2009 49.7173C19.8706 53.6426 23.7073 56.6287 28.168 58.2529C32.6287 59.8771 37.4872 60.057 42.0558 58.7672C46.6243 57.4773 50.6715 54.7831 53.6241 51.066C56.5768 47.3489 58.2855 42.7971 58.5082 38.0552H64.9823C64.7496 44.4186 62.4356 50.5298 58.3953 55.4515C54.3551 60.3732 48.8117 63.8334 42.6156 65.3014C36.4195 66.7694 29.9129 66.164 24.094 63.5781C18.275 60.9923 13.4652 56.5688 10.4022 50.9862C10.285 50.7739 10.0996 50.6074 9.87595 50.5135C9.65234 50.4196 9.40361 50.4038 9.16993 50.4687L5.21214 51.5673L9.51601 38.6579L24.5127 48.6553C24.6305 48.7339 24.7626 48.7885 24.9015 48.816C25.0404 48.8435 25.1834 48.8434 25.3223 48.8157C25.4611 48.788 25.5932 48.7332 25.7108 48.6544C25.8285 48.5756 25.9295 48.4745 26.0081 48.3567C26.0867 48.2389 26.1413 48.1068 26.1688 47.9679C26.1963 47.829 26.1962 47.686 26.1685 47.5471C26.1407 47.4083 26.0859 47.2763 26.0072 47.1586C25.9284 47.0409 25.8272 46.9399 25.7094 46.8613L9.53757 36.0801C9.39972 35.9888 9.24274 35.9305 9.07875 35.9097C8.91477 35.8888 8.74819 35.9059 8.59187 35.9597C8.43555 36.0134 8.2937 36.1024 8.17726 36.2198C8.06083 36.3371 7.97294 36.4797 7.92039 36.6364L2.52976 52.8083C2.46778 52.9939 2.45749 53.1929 2.5 53.3839C2.54251 53.5749 2.63621 53.7508 2.77105 53.8926C2.90589 54.0344 3.0768 54.1369 3.26543 54.189C3.45407 54.241 3.65333 54.2408 3.84184 54.1883L8.93921 52.7705C12.4054 58.6959 17.7264 63.3149 24.08 65.914C30.4337 68.513 37.4664 68.9475 44.0917 67.1502C50.7169 65.3529 56.566 61.4239 60.7351 55.9703C64.9042 50.5166 67.1614 43.8418 67.158 36.9771C67.158 36.6911 67.0444 36.4169 66.8422 36.2147C66.64 36.0125 66.3658 35.8989 66.0798 35.8989Z" fill="#083674"/>
<path d="M25 48.8438L17.5 50L18 48L25 46.5V48.8438Z" fill="#083674"/>
<path d="M51.5 21.3438L44 22.5L44.5 20.5L51.5 19V21.3438Z" fill="#51B37B"/>
</svg>
