<svg width="69" height="69" viewBox="0 0 69 69" fill="none" xmlns="http://www.w3.org/2000/svg">
<path opacity="0.5" d="M37.2059 48.3676L40.3422 45.3235M48.7059 37.2059L44.3088 41.4736M44.3088 41.4736L60.2059 57.5L61.2206 58.5147L57.5 61.5588C56.9588 61.8294 45.836 50.848 40.3422 45.3235M44.3088 41.4736L40.3422 45.3235" stroke="#51B37B"/>
<path d="M40.7531 34.7157L46.575 28.8938C50.6719 30.4032 55.6312 29.7563 58.8656 26.3063C62.1 23.0719 62.9625 18.1125 61.4531 14.0157L55.8469 19.6219L50.6719 18.3282L49.3781 13.1532L54.9844 7.54691C50.8875 6.03753 45.9281 6.68441 42.6937 10.1344C39.4594 13.3688 38.5969 18.3282 40.1062 22.425L34.2844 28.2469" stroke="#083674" stroke-width="2.5" stroke-miterlimit="10" stroke-linejoin="round"/>
<path d="M27.3844 35.1469L22.425 40.1062C18.3281 38.5969 13.3687 39.2437 10.1344 42.6937C6.9 45.9281 6.0375 50.8875 7.54687 54.9844L13.1531 49.3781L18.3281 50.6719L19.6219 55.8469L14.0156 61.4531C18.1125 62.9625 23.0719 62.3156 26.3062 58.8656C29.5406 55.6312 30.4031 50.6719 28.8937 46.575L34.0688 41.4" stroke="#083674" stroke-width="2.5" stroke-miterlimit="10" stroke-linejoin="round"/>
<path d="M12.4975 7.44116L6.76471 13.4496L11.1599 21.0086L18.4214 25.4664L34.6643 41.9412L40.5882 35.9327L24.3453 19.458L19.9502 11.899L12.4975 7.44116Z" stroke="#083674" stroke-width="2.5" stroke-miterlimit="10" stroke-linecap="round" stroke-linejoin="round"/>
<path d="M59.7147 60.4472C56.3539 63.7333 51.1834 63.7333 47.8226 60.4472L31.7941 44.7749L43.6862 33.1471L59.7147 48.8193C63.0755 51.8527 63.0755 57.161 59.7147 60.4472Z" stroke="#51B37B" stroke-width="2.5" stroke-miterlimit="10" stroke-linecap="round" stroke-linejoin="round"/>
</svg>
