<svg width="220" height="76" viewBox="0 0 220 76" fill="none" xmlns="http://www.w3.org/2000/svg">
<path d="M22.8712 32.4106L23.42 9.82971L0.369576 48.5398C-1.4003 59.2926 5.73437 65.7443 5.73437 65.7443L22.8712 32.4106Z" fill="url(#paint0_linear)"/>
<path d="M10.5956 58.0556C4.81558 54.8889 0.0864342 51.7223 0.0864342 51.7223C-1.48994 65.9723 19.003 76 19.003 76H37.0447C37.0447 76 55.2598 69.6667 57.8871 51.7223C57.8871 51.7223 49.1446 56.9804 44.7506 58.0556C40.3566 59.1308 10.5956 58.0556 10.5956 58.0556Z" fill="url(#paint1_linear)"/>
<path d="M57.8607 51.0758L28.2015 0L27.6523 23.6562C27.6523 23.6562 40.2849 48.9253 45.2281 55.377C50.1713 61.8286 50.1713 67.205 50.1713 67.205C50.1713 67.205 58.41 59.1404 57.8607 51.0758Z" fill="url(#paint2_linear)"/>
<path d="M79.6035 35.2848H73.107V47.5H69.5048V32.4913H79.6035V35.2848Z" fill="black"/>
<path d="M87.6188 44.6962H82.6823L81.8202 47.5H77.9717L83.452 32.4913H86.8388L92.3602 47.5H88.4911L87.6188 44.6962ZM83.5444 41.9027H86.7567L85.1454 36.6971L83.5444 41.9027Z" fill="black"/>
<path d="M100.735 36.6558C100.735 36.1816 100.55 35.8002 100.181 35.5116C99.818 35.223 99.3253 35.0787 98.7027 35.0787C98.1212 35.0787 97.6525 35.2195 97.2967 35.5013C96.9478 35.7762 96.7733 36.1404 96.7733 36.594H93.1813C93.1813 35.7693 93.4139 35.0306 93.8792 34.3777C94.3513 33.7249 95.0149 33.2163 95.8702 32.8521C96.7254 32.481 97.6696 32.2955 98.7027 32.2955C100.482 32.2955 101.864 32.67 102.849 33.4191C103.841 34.1681 104.337 35.2161 104.337 36.563C104.337 37.2503 104.135 37.8791 103.732 38.4494C103.335 39.013 102.784 39.4596 102.079 39.7895C102.887 40.0781 103.502 40.5179 103.927 41.1089C104.358 41.6931 104.573 42.4215 104.573 43.2943C104.573 44.6412 104.039 45.7133 102.972 46.5104C101.905 47.3007 100.482 47.6959 98.7027 47.6959C97.0538 47.6959 95.6854 47.3076 94.5976 46.531C93.5097 45.7476 92.9658 44.6824 92.9658 43.3355H96.5783C96.5783 43.7822 96.7767 44.1602 97.1736 44.4694C97.5704 44.7718 98.0801 44.923 98.7027 44.923C99.3732 44.923 99.9172 44.7649 100.335 44.4488C100.752 44.1327 100.961 43.7203 100.961 43.2118C100.961 42.4696 100.783 41.9473 100.427 41.645C100.071 41.3357 99.5511 41.1811 98.8669 41.1811H96.9478V38.501H98.9901C100.153 38.4666 100.735 37.8516 100.735 36.6558Z" fill="black"/>
<path d="M119.187 47.5H115.606V41.2326H110.3V47.5H106.698V32.4913H110.3V38.4494H115.606V32.4913H119.187V47.5Z" fill="black"/>
<path d="M130.744 41.1399H125.078V44.7168H131.77V47.5H121.476V32.4913H131.79V35.2848H125.078V38.4494H130.744V41.1399Z" fill="black"/>
<path d="M142.679 33.7695C144.622 33.7695 146.169 34.3537 147.318 35.5219C148.474 36.6833 149.053 38.2055 149.053 40.0884C149.053 41.0093 148.899 41.8477 148.591 42.6036C148.29 43.3527 147.865 43.9918 147.318 44.5209C146.162 45.6548 144.616 46.2218 142.679 46.2218V48.1185H139.21V46.2218C137.247 46.2218 135.687 45.6548 134.531 44.5209C133.374 43.387 132.796 41.9164 132.796 40.1091C132.796 39.1538 132.95 38.2879 133.258 37.5114C133.566 36.7348 133.997 36.0717 134.551 35.5219C135.714 34.3537 137.267 33.7695 139.21 33.7695V31.8728H142.679V33.7695ZM139.077 36.6764C138.181 36.6764 137.473 36.9788 136.953 37.5836C136.439 38.1883 136.183 39.0301 136.183 40.1091C136.183 41.0986 136.443 41.8821 136.963 42.4593C137.483 43.0297 138.232 43.3149 139.21 43.3149V36.6764H139.077ZM142.679 36.6764V43.3149H142.833C143.688 43.3149 144.373 43.0331 144.886 42.4696C145.406 41.8992 145.666 41.1055 145.666 40.0884C145.666 39.0301 145.413 38.1986 144.906 37.5939C144.407 36.9822 143.665 36.6764 142.679 36.6764Z" fill="black"/>
<path d="M162.579 35.2848H158.094V47.5H154.492V35.2848H150.089V32.4913H162.579V35.2848Z" fill="black"/>
<path d="M173.376 41.1399H167.71V44.7168H174.402V47.5H164.108V32.4913H174.422V35.2848H167.71V38.4494H173.376V41.1399Z" fill="black"/>
<path d="M181.442 37.4805L183.885 32.4913H188L183.823 39.9338L188.113 47.5H183.957L181.442 42.4181L178.928 47.5H174.782L179.061 39.9338L174.895 32.4913H179L181.442 37.4805Z" fill="black"/>
<path d="M198.058 32.4913H201.66V47.5H198.058V38.0371L192.69 47.5H189.088V32.4913H192.69V41.9645L198.058 32.4913Z" fill="black"/>
<path d="M208.598 32.4913L211.933 42.9335L215.259 32.4913H220V47.5H216.387V43.9952L216.736 36.8208L213.124 47.5H210.743L207.12 36.8104L207.469 43.9952V47.5H203.867V32.4913H208.598Z" fill="black"/>
<path d="M82.0768 73.8889H78.4745V61.6737H73.107V73.8889H69.5048V58.8802H82.0768V73.8889Z" fill="black"/>
<path d="M87.9267 68.7967V73.8889H84.3244V58.8802H90.2871C91.4297 58.8802 92.4389 59.0932 93.3147 59.5193C94.1973 59.9385 94.8781 60.5398 95.357 61.3232C95.8428 62.0998 96.0857 62.9829 96.0857 63.9724C96.0857 65.4362 95.5623 66.6079 94.5155 67.4875C93.4755 68.3603 92.0455 68.7967 90.2256 68.7967H87.9267ZM87.9267 66.0032H90.2871C90.985 66.0032 91.5153 65.8279 91.8779 65.4774C92.2474 65.127 92.4321 64.6322 92.4321 63.9931C92.4321 63.2921 92.2439 62.732 91.8676 62.3128C91.4913 61.8936 90.9782 61.6806 90.3282 61.6737H87.9267V66.0032Z" fill="black"/>
<path d="M110.669 66.6938C110.669 68.1576 110.399 69.4529 109.859 70.58C109.318 71.707 108.548 72.5763 107.549 73.1879C106.557 73.7927 105.425 74.0951 104.152 74.0951C102.88 74.0951 101.751 73.803 100.766 73.2189C99.7803 72.6279 99.0106 71.786 98.4564 70.6934C97.9091 69.6007 97.6217 68.3465 97.5943 66.9309V66.0856C97.5943 64.615 97.8612 63.3196 98.3948 62.1994C98.9354 61.0724 99.7051 60.2031 100.704 59.5915C101.71 58.9799 102.852 58.674 104.132 58.674C105.398 58.674 106.526 58.9764 107.519 59.5812C108.511 60.1859 109.28 61.0484 109.828 62.1685C110.382 63.2818 110.662 64.56 110.669 66.0032V66.6938ZM107.005 66.065C107.005 64.5738 106.756 63.4433 106.256 62.6736C105.764 61.8971 105.055 61.5088 104.132 61.5088C102.326 61.5088 101.371 62.8695 101.268 65.5908L101.258 66.6938C101.258 68.1644 101.501 69.2949 101.987 70.0852C102.473 70.8755 103.194 71.2706 104.152 71.2706C105.062 71.2706 105.764 70.8823 106.256 70.1058C106.749 69.3293 106.999 68.2125 107.005 66.7556V66.065Z" fill="black"/>
<path d="M121.794 67.5288H116.129V71.1057H122.821V73.8889H112.527V58.8802H122.841V61.6737H116.129V64.8383H121.794V67.5288Z" fill="black"/>
<path d="M129.574 67.9514H127.87V73.8889H124.268V58.8802H127.87V64.6837H129.255L132.129 58.8802H136.491L132.386 65.8073L137.004 73.8889H132.745L129.574 67.9514Z" fill="black"/>
<path d="M149.627 61.6737H145.142V73.8889H141.54V61.6737H137.137V58.8802H149.627V61.6737Z" fill="black"/>
<defs>
<linearGradient id="paint0_linear" x1="27.6871" y1="16.819" x2="1.57015" y2="58.1693" gradientUnits="userSpaceOnUse">
<stop offset="0.375" stop-color="#53B07B"/>
<stop offset="1" stop-color="#094694"/>
</linearGradient>
<linearGradient id="paint1_linear" x1="-1.40242" y1="64.7096" x2="56.2683" y2="64.7096" gradientUnits="userSpaceOnUse">
<stop stop-color="#4CC6EB"/>
<stop offset="1" stop-color="#062F6D"/>
</linearGradient>
<linearGradient id="paint2_linear" x1="27.6523" y1="10.2152" x2="57.4453" y2="61.8477" gradientUnits="userSpaceOnUse">
<stop stop-color="#278CC7"/>
<stop offset="1" stop-color="#1A6BBA"/>
</linearGradient>
</defs>
</svg>
